<svg id="Calque_1" data-name="Calque 1" xmlns="http://www.w3.org/2000/svg" viewBox="0 0 70 70"><defs><style>.cls-1{fill:none;stroke:#9b313d;stroke-miterlimit:10;stroke-width:0.5px;}</style></defs><path class="cls-1" d="M43.64,1.1A28.31,28.31,0,0,0,38.2,2.46a22.74,22.74,0,0,0-7.41,4.69l-.9.88H26.64c-3.62,0-3.79,0-4.21.83a1.24,1.24,0,0,0,.25,1.57l.32.38,2.26,0,2.26,0-.34.57a29.1,29.1,0,0,0-2.31,4.91,18.35,18.35,0,0,0-1.09,7.23,17.71,17.71,0,0,0,.31,4.47,24.21,24.21,0,0,0,3.68,8.52,27.78,27.78,0,0,0,5.87,5.8,21.88,21.88,0,0,0,11.88,3.82l2.27.08v8.53H9.56V10.91l1.7-.05c1.61,0,1.72-.06,2-.4a1.43,1.43,0,0,0-.45-2.31,19.66,19.66,0,0,0-3.43-.1c-2.87.06-3.13.08-4.17.44a6.19,6.19,0,0,0-3.74,2.87C1,12.39,1,12.46,1,38.78c.05,28.07,0,26,.87,27.62a5,5,0,0,0,3.83,2.39c1.47.26,43.58.29,44.11,0a1.79,1.79,0,0,0,.59-.67l.24-.5L50.12,66c-.3-.92-.64-2.19-.78-2.83-.28-1.44-.16-2.35.71-5.07l.6-1.87V45.91l1.06-.25a23.72,23.72,0,0,0,7.59-3.47A22.65,22.65,0,0,0,50.58,1.36,29.85,29.85,0,0,0,43.64,1.1Zm4.74,2.79.5.09v.77c0,1-.22,1.74-.57,1.93a5.6,5.6,0,0,1-2.14,0c-3.44-.3-3.85-.08-5.64,3.05-.68,1.19-1.59,2.72-2,3.38l-.79,1.2L37,13.5c-1.49-1.66-3.22-1.9-4.43-.62-1.4,1.47-1.54,5.51-.27,7.85a8.37,8.37,0,0,0,3,2.71c2,1,3.37,1.16,4.57.4a1.8,1.8,0,0,1,2.26-.09c.54.48.73.86,1.09,2.25.77,3.13,2.22,4.61,5,5.06l1.09.18.23.6a2.91,2.91,0,0,1,.1,2c-.23.61-.9,1.21-2.56,2.31a18.82,18.82,0,0,0-4.71,4.4c-.54.7-1.17,1.47-1.38,1.67l-.41.38-.87-.33c-.7-.24-.87-.36-.85-.57s.07-1.32.13-2.58c.12-3.15-.1-4.38-1-5.65a11.06,11.06,0,0,0-1.45-1.62,7.65,7.65,0,0,1-1.23-1.36c-.37-.57-.39-.69-.39-2.1s0-1.48-.38-1.83a18.3,18.3,0,0,0-2.23-1.68c-.73-.46-1.77-1.75-3.68-4.51-1.52-2.22-1.48-1.94-.64-4.11A19.66,19.66,0,0,1,40.38,4.72a25.2,25.2,0,0,1,3.74-.82A35.66,35.66,0,0,1,48.38,3.89Zm5.26,1.32a19.34,19.34,0,0,1,7,4.77c1.17,1.24,3.23,4.09,3.09,4.3a1.12,1.12,0,0,1-.49.19,3.82,3.82,0,0,0-1.13.62,21.65,21.65,0,0,1-2.56,1.43c-2.31,1.13-3.26,1.93-4,3.4a6.75,6.75,0,0,0-.42,4.43c.57,3.55,1.56,4.79,3.59,4.48.76-.11.92.1.88,1.17a24.19,24.19,0,0,1-1.14,5.24,11.11,11.11,0,0,0-.6,3.24l0,1.26-.66.45A20.42,20.42,0,0,1,50.81,43a16.3,16.3,0,0,1-4,.41,16.69,16.69,0,0,1-2.76,0c-.2-.1-.11-.26.49-1.06a15,15,0,0,1,4.12-3.83c2-1.33,2.83-2.11,3.34-3.25a5.38,5.38,0,0,0-.08-4.68c-.68-1.47-1.47-2-3.4-2.26A2.71,2.71,0,0,1,46.11,26c-.82-2.92-1.23-3.72-2.37-4.59a4.76,4.76,0,0,0-4.89-.31c-.89.45-.91.45-1.48.23A6.45,6.45,0,0,1,35,19.7a4.62,4.62,0,0,1-.51-1,9.67,9.67,0,0,1,0-3.51c.12-.22.2-.17.73.54,1.28,1.73,2,2.2,2.94,2,.64-.1,1.3-.8,2.39-2.46.77-1.14,2.43-3.94,3.28-5.5L44,9.36l1.54.11c.83.07,1.95.11,2.46.09,2.26-.08,3.46-1.39,3.72-4.09.07-.66.13-.85.3-.85A10.88,10.88,0,0,1,53.64,5.21ZM6.7,32.93v21.9l-.3.06a18.71,18.71,0,0,0-2.31.56c-.23.09-.24-1-.24-21.08,0-22.89,0-21.68.72-22.37a7.06,7.06,0,0,1,2-1S6.7,20.87,6.7,32.93ZM65.17,17.5a7.23,7.23,0,0,1,.43,1.4,20.36,20.36,0,0,1-.54,11.26,20.82,20.82,0,0,1-3.5,6.17l-.54.61.46-1.63c1.28-4.45,1.33-6.87.19-8.26A3,3,0,0,0,59.26,26h-.83l-.23-1a7.7,7.7,0,0,1-.2-3.44c.28-1,1-1.56,3.17-2.64a18.67,18.67,0,0,0,2.41-1.35,1,1,0,0,1,1-.35A1.06,1.06,0,0,1,65.17,17.5ZM27.62,24A13.72,13.72,0,0,0,31,27.46l1,.64L32,29.35c.11,1.75.47,2.41,2.37,4.39,1.48,1.54,1.53,1.61,1.61,2.33a23.86,23.86,0,0,1,0,4.09l-.08.39-1.23-.9a23.25,23.25,0,0,1-4.61-4.71,20.78,20.78,0,0,1-3.26-8c-.24-1.34-.3-4.52-.11-4.3S27.17,23.31,27.62,24ZM47.11,57.76s-.12.52-.27,1.05a9.39,9.39,0,0,0-.34,4.47c.12.71.3,1.58.41,2a6.14,6.14,0,0,1,.2.79c0,.07-9.29.09-20.64.08l-20.65,0-.57-.3c-1.12-.6-1.4-1.37-1.4-3.85,0-1.93.17-2.76.73-3.36.8-.89-.27-.85,22.16-.85C37.94,57.69,47.11,57.72,47.11,57.76Z"/><path class="cls-1" d="M7.7,60.56a1.39,1.39,0,0,0-.6,2.31l.39.4H42.65l.39-.4a1.31,1.31,0,0,0,0-2l-.4-.41-17.25,0C15.07,60.44,8,60.48,7.7,60.56Z"/><path class="cls-1" d="M17.29,8.24a1.19,1.19,0,0,0-.65,1.25,1.21,1.21,0,0,0,.32.89,1.35,1.35,0,0,0,2.4-.86,1.2,1.2,0,0,0-.68-1.29A1.31,1.31,0,0,0,17.29,8.24Z"/><path class="cls-1" d="M17.63,43.5a1.53,1.53,0,0,0-1,1.43,1.17,1.17,0,0,0,.39.94l.39.39H28.5l.39-.39a1.41,1.41,0,0,0,.18-1.77c-.47-.67-.76-.7-6.13-.68C20.19,43.43,17.79,43.47,17.63,43.5Z"/><path class="cls-1" d="M21.72,49.25a1.64,1.64,0,0,0-.87,1.26,1.49,1.49,0,0,0,.75,1.3,89.52,89.52,0,0,0,11.23,0,1.66,1.66,0,0,0,.58-.68,1.29,1.29,0,0,0-.5-1.74c-.4-.25-.72-.26-5.66-.25C24.36,49.13,21.87,49.19,21.72,49.25Z"/></svg>